<svg width="195" height="226" viewBox="0 0 195 226" fill="none" xmlns="http://www.w3.org/2000/svg">
<g clip-path="url(#clip0_66_7205)">
<path d="M22.5926 47.4719L10 46.2227C27.147 59.0959 43.679 69.4934 57.537 89.3222C61.1142 93.304 64.2503 94.6942 68.5 93.7025C68.5 86.2658 78.5 78.3333 78.5 78.3333C88 70.8966 101 65.443 121 68.9135C120 68.4177 134.5 71.3924 134.5 78.3333C138.192 77.4666 140.22 74.0185 141.907 69.9586C145.379 48.9388 153.29 32.8254 163 9.99409C156.321 11.6106 148.674 18.3127 146.315 26.5468C143.421 25.9032 143.481 30.2946 138.444 27.4837C133.407 24.6729 137.163 32.3969 142.537 34.667C134.165 44.4009 117.981 43.4118 117.981 43.4118C117.981 43.4118 98.0926 40.8861 92.4815 27.4837C96.6224 24.8051 93.1111 20.3005 97.5185 19.6759C101.926 19.0512 94.5615 16.5684 89.963 17.4897C88.7224 10.5912 84.9964 4.80831 77.3704 0C73.5703 7.57251 76.435 13.599 78.6296 20.3005C73.7198 21.4106 66.3518 27.4837 72.0185 27.4837C77.6852 27.4837 76.713 30.8174 81.463 29.9823C83.6748 44.5482 66.3518 56.8414 66.3518 56.8414C66.3518 56.8414 52.2318 64.3484 41.4815 59.6522C45.5051 54.5818 47.463 43.0995 44.3148 49.3458C41.1667 55.5921 36.5104 50.0429 33.9259 53.4059C31.351 50.1925 29.5034 48.5863 22.5926 47.4719Z" fill="white"/>
<path d="M109.583 155.595C105.103 155.595 100.549 153.616 95.9192 149.659L95.0232 154.139H78.8952L94.1272 82.9072L110.703 80.6672L97.2632 143.499C99.3539 144.992 101.482 145.739 103.647 145.739C107.903 145.739 111.637 143.275 114.847 138.347C118.133 133.419 120.671 127.147 122.463 119.531C124.255 111.915 125.151 104.224 125.151 96.4592C125.151 89.1418 123.695 83.8032 120.783 80.4432C117.946 77.0085 113.951 75.2912 108.799 75.2912C103.199 75.2912 98.1592 76.4112 93.6792 78.6512C89.2739 80.8165 85.8019 83.9525 83.2632 88.0592C80.7245 92.1658 79.4552 96.9818 79.4552 102.507C79.4552 105.27 79.7165 107.211 80.2392 108.331C80.7619 109.376 81.0232 109.974 81.0232 110.123C77.1405 110.123 74.1539 109.302 72.0632 107.659C70.0472 106.016 69.0392 103.366 69.0392 99.7072C69.0392 94.6298 70.9432 89.8138 74.7512 85.2592C78.5592 80.7045 83.6365 77.0458 89.9832 74.2832C96.4045 71.5205 103.311 70.1392 110.703 70.1392C120.933 70.1392 128.474 73.1632 133.327 79.2112C138.181 85.2592 140.607 92.9872 140.607 102.395C140.607 110.907 139.151 119.307 136.239 127.595C133.402 135.808 129.594 142.528 124.815 147.755C120.037 152.982 114.959 155.595 109.583 155.595Z" fill="white"/>
<path d="M24.7257 175.519C24.7257 176.867 24.5092 178.122 24.0762 179.285C23.6557 180.436 23.0372 181.438 22.2208 182.291C21.4167 183.132 20.4271 183.794 19.252 184.276C18.0769 184.759 16.7471 185 15.2628 185H5.78132V183.887C6.35033 183.887 6.80801 183.843 7.15436 183.757C7.51309 183.658 7.78522 183.509 7.97077 183.312C8.16869 183.101 8.29857 182.829 8.36042 182.495C8.42227 182.149 8.45319 181.734 8.45319 181.252V169.785C8.45319 169.303 8.42227 168.895 8.36042 168.561C8.29857 168.214 8.16869 167.942 7.97077 167.744C7.78522 167.534 7.51309 167.385 7.15436 167.299C6.80801 167.2 6.35033 167.15 5.78132 167.15V166.037H15.2628C16.7471 166.037 18.0769 166.291 19.252 166.798C20.4271 167.293 21.4167 167.973 22.2208 168.839C23.0372 169.692 23.6557 170.694 24.0762 171.845C24.5092 172.995 24.7257 174.22 24.7257 175.519ZM19.6788 175.519C19.6788 174.616 19.5922 173.7 19.419 172.772C19.2458 171.845 18.9366 171.004 18.4913 170.249C18.0583 169.494 17.4708 168.882 16.7286 168.412C15.9988 167.93 15.0772 167.688 13.9639 167.688C13.7908 167.688 13.6361 167.695 13.5001 167.707C13.3764 167.707 13.265 167.713 13.1661 167.726C13.0548 167.738 12.9558 167.75 12.8692 167.763V183.107C13.03 183.206 13.265 183.281 13.5743 183.33C13.8959 183.367 14.2546 183.386 14.6505 183.386C15.6277 183.386 16.4379 183.157 17.0811 182.699C17.7243 182.229 18.2377 181.623 18.6212 180.881C19.0046 180.126 19.2768 179.279 19.4376 178.339C19.5984 177.399 19.6788 176.459 19.6788 175.519ZM40.0149 185L33.8548 176.428C33.7805 176.452 33.6507 176.465 33.4651 176.465C33.3909 176.465 33.3105 176.465 33.2239 176.465C33.1497 176.452 33.0816 176.446 33.0198 176.446V181.419C33.0198 181.877 33.0507 182.266 33.1126 182.588C33.1868 182.897 33.3167 183.151 33.5022 183.349C33.7001 183.534 33.9661 183.67 34.3001 183.757C34.6464 183.843 35.0979 183.887 35.6546 183.887V185H26.0247V183.887C26.5937 183.887 27.0514 183.843 27.3977 183.757C27.7441 183.67 28.0038 183.528 28.177 183.33C28.3626 183.12 28.4801 182.848 28.5296 182.514C28.5914 182.18 28.6223 181.771 28.6223 181.289V169.377C28.6223 168.932 28.5914 168.567 28.5296 168.282C28.4801 167.998 28.3626 167.775 28.177 167.614C28.0038 167.441 27.7441 167.324 27.3977 167.262C27.0514 167.188 26.5937 167.15 26.0247 167.15V166.037H33.8919C34.968 166.037 36.0195 166.087 37.0462 166.186C38.0852 166.272 39.0068 166.482 39.8108 166.816C40.6149 167.15 41.2581 167.645 41.7405 168.301C42.2353 168.944 42.4827 169.816 42.4827 170.917C42.4827 171.672 42.3837 172.34 42.1858 172.921C42.0003 173.502 41.7405 174.003 41.4065 174.424C41.0725 174.844 40.6767 175.185 40.219 175.444C39.7613 175.704 39.2665 175.89 38.7346 176.001L42.8352 180.862C43.2805 181.394 43.6949 181.852 44.0784 182.235C44.4619 182.606 44.833 182.916 45.1917 183.163C45.5504 183.398 45.9091 183.577 46.2678 183.701C46.6389 183.812 47.041 183.874 47.4739 183.887V185H40.0149ZM37.8811 171.195C37.8811 170.762 37.844 170.336 37.7698 169.915C37.6956 169.494 37.5348 169.123 37.2874 168.802C37.0524 168.468 36.6998 168.202 36.2298 168.004C35.7597 167.794 35.1288 167.688 34.3372 167.688C34.1022 167.688 33.9042 167.695 33.7434 167.707C33.5826 167.707 33.4466 167.713 33.3352 167.726C33.1992 167.738 33.094 167.75 33.0198 167.763V174.795C33.1559 174.82 33.3723 174.844 33.6692 174.869C33.9785 174.882 34.2753 174.888 34.5598 174.888C34.9804 174.888 35.3886 174.801 35.7844 174.628C36.1927 174.455 36.5514 174.207 36.8606 173.886C37.1699 173.564 37.4173 173.174 37.6028 172.717C37.7884 172.259 37.8811 171.752 37.8811 171.195ZM56.77 185V183.887C57.5988 183.887 58.174 183.819 58.4956 183.683C58.8296 183.547 58.9966 183.318 58.9966 182.996C58.9966 182.922 58.9842 182.817 58.9595 182.681C58.9347 182.532 58.8729 182.322 58.7739 182.05C58.6873 181.765 58.5574 181.4 58.3843 180.955C58.2111 180.497 57.9699 179.922 57.6606 179.229H51.5932C51.383 179.749 51.1974 180.225 51.0366 180.658C50.9005 181.029 50.7707 181.388 50.647 181.734C50.5356 182.068 50.48 182.285 50.48 182.384C50.48 182.854 50.6779 183.206 51.0737 183.441C51.4819 183.676 52.1251 183.825 53.0034 183.887V185H45.9526V183.887C46.2742 183.825 46.5587 183.751 46.8061 183.664C47.0659 183.565 47.3071 183.417 47.5298 183.219C47.7648 183.008 47.9875 182.73 48.1977 182.384C48.408 182.025 48.6307 181.567 48.8657 181.011L55.1929 165.629H56.3061L63.3384 181.642C63.5239 182.062 63.7342 182.415 63.9692 182.699C64.2042 182.971 64.4516 183.2 64.7114 183.386C64.9712 183.559 65.2309 183.683 65.4907 183.757C65.7628 183.831 66.0226 183.874 66.27 183.887V185H56.77ZM54.4321 172.012L52.187 177.597H56.937L54.4321 172.012ZM80.9099 171.14C80.749 170.534 80.6006 170.014 80.4645 169.581C80.3285 169.136 80.1367 168.777 79.8893 168.505C79.6419 168.22 79.308 168.016 78.8874 167.893C78.4792 167.757 77.9225 167.688 77.2175 167.688H73.6921V174.535H75.4362C76.0052 174.535 76.4629 174.467 76.8093 174.331C77.168 174.195 77.4525 173.991 77.6628 173.719C77.8731 173.447 78.0277 173.106 78.1266 172.698C78.238 172.29 78.3307 171.808 78.405 171.251H79.5182V179.174H78.3864C78.3122 178.617 78.2256 178.147 78.1266 177.764C78.0277 177.38 77.8731 177.071 77.6628 176.836C77.4649 176.589 77.1865 176.415 76.8278 176.316C76.4815 176.205 76.0176 176.149 75.4362 176.149H73.6921V181.252C73.6921 181.71 73.7168 182.105 73.7663 182.439C73.8281 182.773 73.9518 183.046 74.1374 183.256C74.3229 183.466 74.5951 183.627 74.9538 183.738C75.3125 183.837 75.7949 183.887 76.4011 183.887V185H66.6042V183.887C67.1732 183.887 67.6309 183.843 67.9772 183.757C68.336 183.658 68.6081 183.509 68.7936 183.312C68.9916 183.101 69.1214 182.829 69.1833 182.495C69.2575 182.149 69.2946 181.734 69.2946 181.252V169.785C69.2946 169.303 69.2575 168.895 69.1833 168.561C69.1214 168.214 68.9916 167.942 68.7936 167.744C68.6081 167.534 68.336 167.385 67.9772 167.299C67.6309 167.2 67.1732 167.15 66.6042 167.15V166.037H81.8005L82.0046 171.14H80.9099ZM100.207 171.715C100.071 170.329 99.6688 169.315 99.0009 168.672C98.3329 168.016 97.331 167.688 95.995 167.688H94.789V181.438C94.789 181.92 94.8199 182.322 94.8817 182.644C94.956 182.953 95.092 183.2 95.2899 183.386C95.5002 183.571 95.7785 183.701 96.1249 183.775C96.4836 183.85 96.9537 183.887 97.5351 183.887V185H87.664V183.887C88.233 183.887 88.6968 183.85 89.0556 183.775C89.4143 183.701 89.6926 183.571 89.8905 183.386C90.0884 183.2 90.2183 182.953 90.2802 182.644C90.3544 182.322 90.3915 181.92 90.3915 181.438V167.688H88.9999C88.3443 167.688 87.7691 167.763 87.2743 167.911C86.7919 168.047 86.3775 168.276 86.0312 168.598C85.6848 168.907 85.4127 169.321 85.2147 169.841C85.0292 170.348 84.9055 170.973 84.8437 171.715H83.7118L83.8974 166.037H101.135L101.32 171.715H100.207ZM113.919 185V183.887C114.439 183.887 114.816 183.812 115.051 183.664C115.286 183.503 115.403 183.299 115.403 183.052C115.403 182.891 115.373 182.718 115.311 182.532C115.261 182.334 115.15 182.13 114.977 181.92L109.93 176.576L109.429 177.003V181.252C109.429 181.734 109.46 182.149 109.522 182.495C109.583 182.829 109.695 183.101 109.856 183.312C110.029 183.509 110.264 183.658 110.561 183.757C110.858 183.843 111.247 183.887 111.73 183.887V185H102.341V183.887C102.91 183.887 103.368 183.843 103.714 183.757C104.073 183.658 104.345 183.509 104.53 183.312C104.728 183.101 104.858 182.829 104.92 182.495C104.994 182.149 105.031 181.734 105.031 181.252V169.785C105.031 169.303 104.994 168.895 104.92 168.561C104.858 168.214 104.728 167.942 104.53 167.744C104.345 167.534 104.073 167.385 103.714 167.299C103.368 167.2 102.91 167.15 102.341 167.15V166.037H111.637V167.15C111.167 167.15 110.789 167.2 110.505 167.299C110.22 167.385 109.998 167.534 109.837 167.744C109.676 167.942 109.565 168.214 109.503 168.561C109.454 168.895 109.429 169.303 109.429 169.785V174.238C110.579 173.212 111.606 172.265 112.509 171.399C112.892 171.028 113.27 170.663 113.641 170.305C114.012 169.934 114.34 169.593 114.624 169.284C114.909 168.963 115.137 168.69 115.311 168.468C115.496 168.233 115.589 168.066 115.589 167.967C115.589 167.596 115.441 167.367 115.144 167.28C114.859 167.194 114.401 167.15 113.771 167.15V166.037H121.693V167.15C121.273 167.15 120.914 167.175 120.617 167.225C120.32 167.262 120.054 167.33 119.819 167.429C119.584 167.515 119.356 167.639 119.133 167.8C118.923 167.948 118.681 168.128 118.409 168.338L112.917 173.979L120.228 181.586C120.648 182.031 121.056 182.402 121.452 182.699C121.848 182.996 122.219 183.231 122.566 183.404C122.924 183.577 123.252 183.701 123.549 183.775C123.858 183.85 124.13 183.887 124.365 183.887V185H113.919ZM124.199 185V183.887C124.768 183.887 125.225 183.85 125.572 183.775C125.93 183.701 126.202 183.571 126.388 183.386C126.586 183.2 126.716 182.953 126.778 182.644C126.852 182.322 126.889 181.92 126.889 181.438V169.785C126.889 169.303 126.852 168.895 126.778 168.561C126.716 168.214 126.586 167.942 126.388 167.744C126.202 167.534 125.93 167.385 125.572 167.299C125.225 167.2 124.768 167.15 124.199 167.15V166.037H133.958V167.15C133.389 167.15 132.925 167.2 132.567 167.299C132.22 167.385 131.948 167.534 131.75 167.744C131.565 167.942 131.441 168.214 131.379 168.561C131.317 168.895 131.286 169.303 131.286 169.785V181.438C131.286 181.92 131.317 182.322 131.379 182.644C131.441 182.953 131.565 183.2 131.75 183.386C131.948 183.571 132.22 183.701 132.567 183.775C132.925 183.85 133.389 183.887 133.958 183.887V185H124.199ZM153.645 167.15C153.2 167.15 152.835 167.181 152.55 167.243C152.278 167.293 152.062 167.392 151.901 167.54C151.752 167.688 151.647 167.899 151.585 168.171C151.524 168.431 151.493 168.771 151.493 169.191V185.297H149.86L138.783 170.973V181.846C138.783 182.279 138.826 182.631 138.913 182.903C139.012 183.163 139.16 183.367 139.358 183.516C139.556 183.664 139.816 183.763 140.137 183.812C140.459 183.862 140.855 183.887 141.325 183.887V185H134.589V183.887C135.035 183.887 135.406 183.862 135.703 183.812C136.012 183.763 136.265 183.664 136.463 183.516C136.661 183.367 136.804 183.163 136.89 182.903C136.977 182.631 137.02 182.279 137.02 181.846V168.728C136.736 168.356 136.507 168.066 136.334 167.855C136.16 167.645 135.993 167.491 135.833 167.392C135.684 167.28 135.517 167.212 135.332 167.188C135.146 167.15 134.899 167.132 134.589 167.132V166.037H140.824L149.73 177.578V169.191C149.73 168.771 149.693 168.431 149.619 168.171C149.544 167.899 149.421 167.688 149.248 167.54C149.074 167.392 148.833 167.293 148.524 167.243C148.215 167.181 147.831 167.15 147.374 167.15V166.037H153.645V167.15ZM175.67 175.741C175.187 175.741 174.798 175.791 174.501 175.89C174.204 175.976 173.975 176.125 173.814 176.335C173.653 176.533 173.548 176.805 173.499 177.151C173.449 177.485 173.425 177.894 173.425 178.376V183.423C172.249 184.128 170.988 184.635 169.639 184.944C168.303 185.254 166.813 185.408 165.168 185.408C163.411 185.408 161.884 185.13 160.585 184.573C159.286 184.004 158.21 183.256 157.356 182.328C156.503 181.4 155.866 180.343 155.445 179.155C155.037 177.968 154.833 176.756 154.833 175.519C154.833 174.282 155.068 173.069 155.538 171.882C156.02 170.694 156.707 169.637 157.597 168.709C158.5 167.781 159.595 167.039 160.882 166.482C162.18 165.913 163.646 165.629 165.279 165.629C166.034 165.629 166.72 165.703 167.339 165.852C167.969 165.988 168.526 166.142 169.009 166.315C169.503 166.489 169.924 166.649 170.27 166.798C170.629 166.934 170.92 167.002 171.142 167.002C171.278 167.002 171.384 166.946 171.458 166.835C171.544 166.711 171.606 166.575 171.643 166.427C171.68 166.266 171.705 166.111 171.718 165.963C171.742 165.802 171.767 165.678 171.792 165.592H172.868L173.425 172.42H172.33C172.107 171.579 171.786 170.83 171.365 170.175C170.944 169.507 170.456 168.95 169.899 168.505C169.355 168.047 168.761 167.701 168.118 167.466C167.475 167.218 166.813 167.095 166.133 167.095C165.032 167.095 164.085 167.311 163.294 167.744C162.514 168.165 161.865 168.752 161.345 169.507C160.838 170.261 160.461 171.152 160.214 172.179C159.979 173.205 159.861 174.319 159.861 175.519C159.861 176.582 159.948 177.621 160.121 178.636C160.294 179.638 160.603 180.535 161.049 181.326C161.494 182.118 162.106 182.755 162.885 183.237C163.677 183.707 164.685 183.942 165.91 183.942C166.565 183.942 167.135 183.887 167.617 183.775C168.099 183.664 168.569 183.448 169.027 183.126V178.376C169.027 177.894 168.99 177.485 168.916 177.151C168.854 176.805 168.73 176.533 168.545 176.335C168.371 176.125 168.124 175.976 167.802 175.89C167.493 175.791 167.091 175.741 166.596 175.741V174.628H175.67V175.741ZM190.458 179.638C190.458 180.491 190.285 181.277 189.938 181.994C189.592 182.699 189.122 183.305 188.528 183.812C187.935 184.32 187.229 184.715 186.413 185C185.609 185.272 184.743 185.408 183.815 185.408C183.11 185.408 182.541 185.353 182.108 185.241C181.688 185.13 181.329 185.006 181.032 184.87C180.735 184.722 180.469 184.592 180.234 184.48C180.012 184.369 179.746 184.313 179.436 184.313C179.09 184.313 178.806 184.419 178.583 184.629C178.373 184.827 178.181 185.087 178.008 185.408H176.969V178.265H178.063C178.138 178.92 178.311 179.594 178.583 180.287C178.855 180.98 179.232 181.611 179.715 182.18C180.197 182.749 180.785 183.213 181.477 183.571C182.17 183.93 182.974 184.109 183.89 184.109C184.298 184.109 184.694 184.054 185.077 183.942C185.461 183.819 185.795 183.646 186.079 183.423C186.376 183.188 186.611 182.91 186.784 182.588C186.957 182.254 187.044 181.883 187.044 181.475C187.044 180.918 186.902 180.423 186.617 179.99C186.333 179.557 185.955 179.161 185.485 178.803C185.028 178.432 184.502 178.085 183.908 177.764C183.314 177.43 182.708 177.102 182.09 176.78C181.484 176.446 180.884 176.094 180.29 175.723C179.696 175.352 179.164 174.943 178.694 174.498C178.237 174.04 177.865 173.527 177.581 172.958C177.296 172.389 177.154 171.74 177.154 171.01C177.154 170.218 177.296 169.494 177.581 168.839C177.878 168.183 178.286 167.62 178.806 167.15C179.338 166.668 179.962 166.297 180.68 166.037C181.409 165.765 182.213 165.629 183.092 165.629C183.698 165.629 184.224 165.697 184.669 165.833C185.127 165.957 185.529 166.099 185.875 166.26C186.221 166.421 186.531 166.569 186.803 166.705C187.075 166.829 187.341 166.891 187.601 166.891C187.848 166.891 188.033 166.767 188.157 166.52C188.281 166.272 188.374 165.975 188.435 165.629H189.512V172.68H188.343C188.256 171.814 188.052 171.028 187.73 170.323C187.409 169.618 187.013 169.018 186.543 168.523C186.073 168.029 185.541 167.651 184.947 167.392C184.366 167.119 183.772 166.983 183.166 166.983C182.795 166.983 182.436 167.045 182.09 167.169C181.756 167.28 181.459 167.447 181.199 167.67C180.939 167.893 180.735 168.159 180.587 168.468C180.438 168.777 180.364 169.117 180.364 169.488C180.364 169.971 180.506 170.41 180.791 170.806C181.088 171.189 181.471 171.554 181.941 171.9C182.411 172.234 182.949 172.556 183.556 172.865C184.162 173.162 184.78 173.478 185.411 173.812C186.042 174.146 186.66 174.498 187.267 174.869C187.873 175.24 188.411 175.655 188.881 176.112C189.351 176.57 189.728 177.09 190.013 177.671C190.31 178.24 190.458 178.896 190.458 179.638ZM38.9385 199.15C38.654 199.15 38.4005 199.194 38.1778 199.28C37.9675 199.367 37.7696 199.521 37.584 199.744C37.3985 199.967 37.2191 200.264 37.046 200.635C36.8728 201.006 36.6749 201.47 36.4522 202.026L30.4034 217.408H29.2715L24.7999 206.09L20.0128 217.408H18.8809L12.9991 201.989C12.7888 201.457 12.6033 201.012 12.4424 200.653C12.294 200.295 12.1208 200.004 11.9229 199.781C11.725 199.559 11.4776 199.398 11.1807 199.299C10.8962 199.2 10.5189 199.15 10.0489 199.15V198.037H19.419V199.15C19.1221 199.15 18.8438 199.175 18.584 199.225C18.3243 199.262 18.0954 199.324 17.8975 199.41C17.6996 199.497 17.5388 199.608 17.4151 199.744C17.3038 199.88 17.2481 200.041 17.2481 200.227C17.2481 200.412 17.2728 200.629 17.3223 200.876C17.3718 201.123 17.4584 201.396 17.5821 201.692L20.9405 210.543L23.8721 203.715C23.5629 202.874 23.2908 202.162 23.0557 201.581C22.8207 201 22.5795 200.53 22.3321 200.171C22.0971 199.812 21.8311 199.552 21.5342 199.392C21.2374 199.231 20.8786 199.15 20.4581 199.15V198.037H29.8467V199.15C29.488 199.15 29.1478 199.169 28.8262 199.206C28.517 199.231 28.2449 199.274 28.0098 199.336C27.7872 199.398 27.6078 199.491 27.4717 199.614C27.3357 199.726 27.2676 199.862 27.2676 200.022C27.2676 200.282 27.3542 200.641 27.5274 201.099L31.1085 210.283L34.337 202.75C34.4112 202.564 34.4916 202.36 34.5782 202.138C34.6648 201.903 34.7452 201.674 34.8194 201.451C34.906 201.216 34.974 201 35.0235 200.802C35.073 200.591 35.0977 200.431 35.0977 200.319C35.0977 199.825 34.9555 199.509 34.671 199.373C34.3865 199.225 33.9906 199.15 33.4835 199.15V198.037H38.9385V199.15ZM39.4026 217V215.887C39.9716 215.887 40.4293 215.85 40.7757 215.775C41.1344 215.701 41.4065 215.571 41.5921 215.386C41.79 215.2 41.9199 214.953 41.9817 214.644C42.0559 214.322 42.093 213.92 42.093 213.438V201.785C42.093 201.303 42.0559 200.895 41.9817 200.561C41.9199 200.214 41.79 199.942 41.5921 199.744C41.4065 199.534 41.1344 199.385 40.7757 199.299C40.4293 199.2 39.9716 199.15 39.4026 199.15V198.037H49.1624V199.15C48.5934 199.15 48.1295 199.2 47.7708 199.299C47.4244 199.385 47.1523 199.534 46.9544 199.744C46.7688 199.942 46.6451 200.214 46.5833 200.561C46.5214 200.895 46.4905 201.303 46.4905 201.785V213.438C46.4905 213.92 46.5214 214.322 46.5833 214.644C46.6451 214.953 46.7688 215.2 46.9544 215.386C47.1523 215.571 47.4244 215.701 47.7708 215.775C48.1295 215.85 48.5934 215.887 49.1624 215.887V217H39.4026ZM68.8491 199.15C68.4038 199.15 68.0389 199.181 67.7544 199.243C67.4822 199.293 67.2658 199.392 67.105 199.54C66.9565 199.688 66.8514 199.899 66.7895 200.171C66.7277 200.431 66.6968 200.771 66.6968 201.191V217.297H65.0639L53.9868 202.973V213.846C53.9868 214.279 54.0301 214.631 54.1167 214.903C54.2156 215.163 54.3641 215.367 54.562 215.516C54.7599 215.664 55.0197 215.763 55.3413 215.812C55.6629 215.862 56.0587 215.887 56.5288 215.887V217H49.7934V215.887C50.2387 215.887 50.6098 215.862 50.9067 215.812C51.216 215.763 51.4695 215.664 51.6675 215.516C51.8654 215.367 52.0076 215.163 52.0942 214.903C52.1808 214.631 52.2241 214.279 52.2241 213.846V200.728C51.9396 200.356 51.7108 200.066 51.5376 199.855C51.3644 199.645 51.1974 199.491 51.0366 199.392C50.8882 199.28 50.7212 199.212 50.5356 199.188C50.3501 199.15 50.1027 199.132 49.7934 199.132V198.037H56.0278L64.9341 209.578V201.191C64.9341 200.771 64.8969 200.431 64.8227 200.171C64.7485 199.899 64.6248 199.688 64.4516 199.54C64.2785 199.392 64.0372 199.293 63.728 199.243C63.4188 199.181 63.0353 199.15 62.5776 199.15V198.037H68.8491V199.15ZM99.2235 207.519C99.2235 208.842 98.9885 210.104 98.5184 211.304C98.0608 212.504 97.399 213.561 96.5331 214.477C95.6672 215.38 94.6096 216.103 93.3602 216.647C92.1233 217.179 90.7255 217.445 89.1669 217.445C87.6083 217.445 86.2043 217.179 84.955 216.647C83.7056 216.116 82.6418 215.398 81.7636 214.495C80.8977 213.592 80.2297 212.541 79.7597 211.341C79.302 210.129 79.0731 208.854 79.0731 207.519C79.0731 206.146 79.3205 204.859 79.8153 203.659C80.3225 202.447 81.0214 201.396 81.912 200.505C82.815 199.614 83.8788 198.915 85.1034 198.408C86.3404 197.889 87.6825 197.629 89.1298 197.629C90.6884 197.629 92.0923 197.895 93.3417 198.427C94.591 198.946 95.6487 199.658 96.5145 200.561C97.3928 201.464 98.0608 202.515 98.5184 203.715C98.9885 204.902 99.2235 206.17 99.2235 207.519ZM94.1767 207.611C94.1767 206.98 94.1395 206.331 94.0653 205.663C94.0035 204.995 93.8983 204.346 93.7499 203.715C93.6015 203.072 93.3974 202.472 93.1376 201.915C92.8902 201.346 92.5748 200.851 92.1913 200.431C91.8202 199.998 91.3811 199.658 90.8739 199.41C90.3668 199.163 89.7854 199.039 89.1298 199.039C88.4742 199.039 87.8928 199.163 87.3856 199.41C86.8785 199.658 86.4393 199.992 86.0683 200.412C85.6972 200.833 85.3879 201.321 85.1405 201.878C84.8931 202.435 84.689 203.022 84.5282 203.641C84.3798 204.259 84.2746 204.896 84.2128 205.552C84.1509 206.195 84.12 206.813 84.12 207.407C84.12 207.951 84.1509 208.545 84.2128 209.188C84.2746 209.832 84.3798 210.475 84.5282 211.118C84.689 211.749 84.8931 212.361 85.1405 212.955C85.3879 213.536 85.6972 214.056 86.0683 214.514C86.4393 214.959 86.8723 215.318 87.3671 215.59C87.8742 215.862 88.4618 215.998 89.1298 215.998C90.1194 215.998 90.9358 215.732 91.579 215.2C92.2346 214.656 92.7541 213.969 93.1376 213.141C93.5211 212.312 93.787 211.409 93.9354 210.432C94.0962 209.442 94.1767 208.502 94.1767 207.611ZM119.356 199.15C118.91 199.15 118.545 199.181 118.261 199.243C117.989 199.293 117.772 199.392 117.611 199.54C117.463 199.688 117.358 199.899 117.296 200.171C117.234 200.431 117.203 200.771 117.203 201.191V217.297H115.57L104.493 202.973V213.846C104.493 214.279 104.537 214.631 104.623 214.903C104.722 215.163 104.871 215.367 105.068 215.516C105.266 215.664 105.526 215.763 105.848 215.812C106.169 215.862 106.565 215.887 107.035 215.887V217H100.3V215.887C100.745 215.887 101.116 215.862 101.413 215.812C101.722 215.763 101.976 215.664 102.174 215.516C102.372 215.367 102.514 215.163 102.601 214.903C102.687 214.631 102.731 214.279 102.731 213.846V200.728C102.446 200.356 102.217 200.066 102.044 199.855C101.871 199.645 101.704 199.491 101.543 199.392C101.395 199.28 101.228 199.212 101.042 199.188C100.857 199.15 100.609 199.132 100.3 199.132V198.037H106.534L115.441 209.578V201.191C115.441 200.771 115.403 200.431 115.329 200.171C115.255 199.899 115.131 199.688 114.958 199.54C114.785 199.392 114.544 199.293 114.234 199.243C113.925 199.181 113.542 199.15 113.084 199.15V198.037H119.356V199.15ZM135.869 217H120.024V215.887C120.593 215.887 121.05 215.843 121.397 215.757C121.756 215.658 122.028 215.509 122.213 215.312C122.411 215.101 122.541 214.829 122.603 214.495C122.665 214.149 122.696 213.734 122.696 213.252V201.785C122.696 201.303 122.665 200.895 122.603 200.561C122.541 200.214 122.411 199.942 122.213 199.744C122.028 199.534 121.756 199.385 121.397 199.299C121.05 199.2 120.593 199.15 120.024 199.15V198.037H129.988V199.15C129.419 199.15 128.949 199.2 128.577 199.299C128.206 199.385 127.909 199.534 127.687 199.744C127.464 199.942 127.31 200.214 127.223 200.561C127.136 200.895 127.093 201.303 127.093 201.785V213.252C127.093 213.673 127.118 214.019 127.167 214.291C127.229 214.563 127.365 214.78 127.576 214.94C127.786 215.089 128.095 215.194 128.503 215.256C128.924 215.318 129.487 215.349 130.192 215.349H131.658C132.152 215.349 132.622 215.274 133.068 215.126C133.525 214.978 133.964 214.718 134.385 214.347C134.806 213.963 135.214 213.45 135.61 212.807C136.006 212.163 136.395 211.347 136.779 210.357H137.892L135.869 217ZM138.486 217V215.887C139.055 215.887 139.513 215.85 139.859 215.775C140.218 215.701 140.49 215.571 140.675 215.386C140.873 215.2 141.003 214.953 141.065 214.644C141.139 214.322 141.176 213.92 141.176 213.438V201.785C141.176 201.303 141.139 200.895 141.065 200.561C141.003 200.214 140.873 199.942 140.675 199.744C140.49 199.534 140.218 199.385 139.859 199.299C139.513 199.2 139.055 199.15 138.486 199.15V198.037H148.246V199.15C147.677 199.15 147.213 199.2 146.854 199.299C146.508 199.385 146.236 199.534 146.038 199.744C145.852 199.942 145.728 200.214 145.667 200.561C145.605 200.895 145.574 201.303 145.574 201.785V213.438C145.574 213.92 145.605 214.322 145.667 214.644C145.728 214.953 145.852 215.2 146.038 215.386C146.236 215.571 146.508 215.701 146.854 215.775C147.213 215.85 147.677 215.887 148.246 215.887V217H138.486ZM167.932 199.15C167.487 199.15 167.122 199.181 166.838 199.243C166.565 199.293 166.349 199.392 166.188 199.54C166.04 199.688 165.935 199.899 165.873 200.171C165.811 200.431 165.78 200.771 165.78 201.191V217.297H164.147L153.07 202.973V213.846C153.07 214.279 153.113 214.631 153.2 214.903C153.299 215.163 153.447 215.367 153.645 215.516C153.843 215.664 154.103 215.763 154.425 215.812C154.746 215.862 155.142 215.887 155.612 215.887V217H148.877V215.887C149.322 215.887 149.693 215.862 149.99 215.812C150.299 215.763 150.553 215.664 150.751 215.516C150.949 215.367 151.091 215.163 151.177 214.903C151.264 214.631 151.307 214.279 151.307 213.846V200.728C151.023 200.356 150.794 200.066 150.621 199.855C150.448 199.645 150.281 199.491 150.12 199.392C149.971 199.28 149.804 199.212 149.619 199.188C149.433 199.15 149.186 199.132 148.877 199.132V198.037H155.111L164.017 209.578V201.191C164.017 200.771 163.98 200.431 163.906 200.171C163.832 199.899 163.708 199.688 163.535 199.54C163.362 199.392 163.12 199.293 162.811 199.243C162.502 199.181 162.119 199.15 161.661 199.15V198.037H167.932V199.15ZM183.611 217H168.656V215.887C169.25 215.887 169.72 215.843 170.066 215.757C170.425 215.658 170.697 215.497 170.883 215.274C171.068 215.039 171.192 214.73 171.254 214.347C171.316 213.963 171.347 213.481 171.347 212.899V202.082C171.347 201.488 171.322 201.006 171.272 200.635C171.223 200.251 171.105 199.948 170.92 199.726C170.734 199.503 170.462 199.348 170.103 199.262C169.745 199.175 169.262 199.132 168.656 199.132V198.037H183.797L184.019 203.14H182.943C182.782 202.534 182.628 202.014 182.479 201.581C182.343 201.136 182.152 200.777 181.904 200.505C181.669 200.22 181.341 200.016 180.921 199.893C180.513 199.757 179.956 199.688 179.251 199.688H175.707V206.535H177.414C177.995 206.535 178.459 206.467 178.806 206.331C179.164 206.195 179.449 205.991 179.659 205.719C179.882 205.447 180.043 205.106 180.142 204.698C180.253 204.29 180.346 203.808 180.42 203.251H181.533V211.174H180.42C180.346 210.617 180.253 210.147 180.142 209.764C180.043 209.38 179.888 209.071 179.678 208.836C179.467 208.589 179.183 208.415 178.824 208.316C178.478 208.205 178.008 208.149 177.414 208.149H175.707V213.085C175.707 213.456 175.713 213.784 175.726 214.068C175.75 214.353 175.812 214.594 175.911 214.792C176.022 214.99 176.183 215.145 176.393 215.256C176.604 215.355 176.907 215.404 177.303 215.404H178.806C179.634 215.404 180.321 215.33 180.865 215.182C181.409 215.021 181.879 214.786 182.275 214.477C182.671 214.155 183.03 213.747 183.352 213.252C183.673 212.757 184.026 212.176 184.409 211.508H185.56L183.611 217Z" fill="white"/>
</g>
<defs>
<clipPath id="clip0_66_7205">
<rect width="195" height="226" fill="white"/>
</clipPath>
</defs>
</svg>
