<svg width="48" height="48" viewBox="0 0 48 48" fill="none" xmlns="http://www.w3.org/2000/svg">
<rect width="48" height="48" rx="24" fill="#53D337"/>
<path d="M29.3204 35.9203L29.3205 35.9202C29.7077 35.5464 29.9287 35.0357 29.9287 34.4991C29.9287 33.9626 29.7077 33.4519 29.3205 33.0781L29.3204 33.078L19.9037 23.9909L29.3204 14.9039L29.3205 14.9039L29.3266 14.8978C29.7031 14.5216 29.9146 14.0141 29.9098 13.4836C29.9051 12.9532 29.6845 12.4494 29.3015 12.0799C28.9191 11.7109 28.4054 11.5045 27.872 11.5001C27.3386 11.4956 26.8215 11.6933 26.4327 12.0556L26.4326 12.0556L26.4264 12.0616L15.537 22.5698L15.5369 22.5699C15.1497 22.9437 14.9287 23.4544 14.9287 23.9909C14.9287 24.5274 15.1497 25.0382 15.5369 25.412L15.537 25.4121L26.4264 35.9203L26.4264 35.9203C26.8132 36.2934 27.334 36.5 27.8734 36.5C28.4129 36.5 28.9336 36.2934 29.3204 35.9203Z" fill="black" stroke="black"/>
</svg>
