<svg width="36" height="36" viewBox="0 0 36 36" fill="none" xmlns="http://www.w3.org/2000/svg">
<g clip-path="url(#clip0_6_1385)">
<path d="M34.2537 16.3477C34.6254 16.0708 34.9011 15.6845 35.0422 15.2431C35.1832 14.8016 35.1826 14.327 35.0403 13.886C34.8981 13.4449 34.6214 13.0594 34.249 12.7835C33.8765 12.5076 33.4271 12.3552 32.9637 12.3477L23.9637 12.0077C23.9195 12.0046 23.8771 11.9888 23.8416 11.9622C23.8061 11.9356 23.7791 11.8993 23.7637 11.8577L20.6537 3.45765C20.4975 3.03029 20.2137 2.66127 19.8408 2.40055C19.4678 2.13983 19.0238 2 18.5687 2C18.1137 2 17.6697 2.13983 17.2967 2.40055C16.9238 2.66127 16.64 3.03029 16.4837 3.45765L13.3837 11.8877C13.3684 11.9293 13.3414 11.9656 13.3059 11.9922C13.2704 12.0188 13.228 12.0346 13.1837 12.0377L4.18375 12.3777C3.72035 12.3852 3.27095 12.5376 2.89854 12.8135C2.52614 13.0894 2.24941 13.4749 2.10716 13.916C1.96491 14.357 1.96427 14.8316 2.10533 15.2731C2.24639 15.7145 2.52209 16.1008 2.89375 16.3777L9.95375 21.9277C9.98908 21.9555 10.0155 21.993 10.0297 22.0357C10.0439 22.0783 10.0453 22.1242 10.0337 22.1677L7.60375 30.7777C7.47783 31.2161 7.49002 31.6827 7.63869 32.1139C7.78735 32.5452 8.06525 32.9202 8.4346 33.1879C8.80394 33.4556 9.24679 33.6031 9.7029 33.6102C10.159 33.6173 10.6062 33.4837 10.9837 33.2277L18.4437 28.2277C18.4805 28.2023 18.5241 28.1887 18.5687 28.1887C18.6134 28.1887 18.657 28.2023 18.6937 28.2277L26.1537 33.2277C26.5261 33.4925 26.9718 33.6348 27.4287 33.6348C27.8857 33.6348 28.3313 33.4925 28.7037 33.2277C29.0732 32.9625 29.3514 32.5893 29.5 32.1595C29.6486 31.7297 29.6604 31.2644 29.5337 30.8277L27.0837 22.1877C27.0708 22.1443 27.0715 22.098 27.0858 22.055C27.1001 22.0121 27.1273 21.9746 27.1637 21.9477L34.2537 16.3477Z" fill="#949494"/>
</g>
<defs>
<clipPath id="clip0_6_1385">
<rect width="36" height="36" fill="white"/>
</clipPath>
</defs>
</svg>
