<svg width="32" height="32" viewBox="0 0 32 32" fill="none" xmlns="http://www.w3.org/2000/svg">
<g clip-path="url(#clip0_6_1417)">
<path d="M11.2 0C10.3513 0 9.53737 0.337142 8.93726 0.937258C8.33714 1.53737 8 2.35131 8 3.2H22.4C23.2487 3.2 24.0626 3.53714 24.6627 4.13726C25.2629 4.73737 25.6 5.55131 25.6 6.4V25.6C26.4487 25.6 27.2626 25.2629 27.8627 24.6627C28.4629 24.0626 28.8 23.2487 28.8 22.4V3.2C28.8 2.35131 28.4629 1.53737 27.8627 0.937258C27.2626 0.337142 26.4487 0 25.6 0L11.2 0Z" fill="#949494"/>
<path d="M20.8 32C21.6487 32 22.4626 31.6629 23.0627 31.0628C23.6629 30.4627 24 29.6487 24 28.8V8.00005C24 7.15136 23.6629 6.33742 23.0627 5.73731C22.4626 5.13719 21.6487 4.80005 20.8 4.80005H6.4C5.5513 4.80005 4.73737 5.13719 4.13726 5.73731C3.53714 6.33742 3.2 7.15136 3.2 8.00005V28.8C3.2 29.6487 3.53714 30.4627 4.13726 31.0628C4.73737 31.6629 5.5513 32 6.4 32H20.8ZM14.4 8.00005H20.8V16H14.4V8.00005ZM6.4 8.00005H12.8V9.60005H6.4V8.00005ZM6.4 11.2H12.8V12.8H6.4V11.2ZM6.4 14.4H12.8V16H6.4V14.4ZM6.4 17.6H20.8V19.2H6.4V17.6ZM6.4 20.8H20.8V22.4H6.4V20.8ZM6.4 24H20.8V25.6H6.4V24Z" fill="#949494"/>
</g>
<defs>
<clipPath id="clip0_6_1417">
<rect width="32" height="32" fill="white"/>
</clipPath>
</defs>
</svg>
