<svg width="32" height="32" viewBox="0 0 32 32" fill="none" xmlns="http://www.w3.org/2000/svg">
<path d="M27.3333 14.6666H25.3333V9.33325C25.3333 8.62601 25.0524 7.94773 24.5523 7.44763C24.0522 6.94754 23.3739 6.66659 22.6667 6.66659H17.3333V4.66659C17.3333 3.78253 16.9821 2.93468 16.357 2.30956C15.7319 1.68444 14.884 1.33325 14 1.33325C13.1159 1.33325 12.2681 1.68444 11.643 2.30956C11.0178 2.93468 10.6667 3.78253 10.6667 4.66659V6.66659H5.33332C4.62608 6.66659 3.9478 6.94754 3.4477 7.44763C2.94761 7.94773 2.66666 8.62601 2.66666 9.33325V14.3999H4.66666C6.66666 14.3999 8.26666 15.9999 8.26666 17.9999C8.26666 19.9999 6.66666 21.5999 4.66666 21.5999H2.66666V26.6666C2.66666 27.3738 2.94761 28.0521 3.4477 28.5522C3.9478 29.0523 4.62608 29.3333 5.33332 29.3333H10.4V27.3333C10.4 25.3333 12 23.7333 14 23.7333C16 23.7333 17.6 25.3333 17.6 27.3333V29.3333H22.6667C23.3739 29.3333 24.0522 29.0523 24.5523 28.5522C25.0524 28.0521 25.3333 27.3738 25.3333 26.6666V21.3333H27.3333C28.2174 21.3333 29.0652 20.9821 29.6903 20.3569C30.3155 19.7318 30.6667 18.884 30.6667 17.9999C30.6667 17.1159 30.3155 16.268 29.6903 15.6429C29.0652 15.0178 28.2174 14.6666 27.3333 14.6666Z" fill="#949494"/>
</svg>
