<svg width="25" height="24" viewBox="0 0 25 24" fill="none" xmlns="http://www.w3.org/2000/svg">
<path d="M12.5 2.25C10.5716 2.25 8.68657 2.82183 7.08319 3.89317C5.47982 4.96451 4.23013 6.48726 3.49218 8.26884C2.75422 10.0504 2.56114 12.0108 2.93735 13.9021C3.31355 15.7934 4.24215 17.5307 5.60571 18.8943C6.96928 20.2579 8.70656 21.1865 10.5979 21.5627C12.4892 21.9389 14.4496 21.7458 16.2312 21.0078C18.0127 20.2699 19.5355 19.0202 20.6068 17.4168C21.6782 15.8134 22.25 13.9284 22.25 12C22.2473 9.41498 21.2192 6.93661 19.3913 5.10872C17.5634 3.28084 15.085 2.25273 12.5 2.25ZM12.5 18C12.2775 18 12.06 17.934 11.875 17.8104C11.69 17.6868 11.5458 17.5111 11.4606 17.3055C11.3755 17.1 11.3532 16.8738 11.3966 16.6555C11.44 16.4373 11.5472 16.2368 11.7045 16.0795C11.8618 15.9222 12.0623 15.815 12.2805 15.7716C12.4988 15.7282 12.725 15.7505 12.9305 15.8356C13.1361 15.9208 13.3118 16.065 13.4354 16.25C13.559 16.435 13.625 16.6525 13.625 16.875C13.625 17.1734 13.5065 17.4595 13.2955 17.6705C13.0845 17.8815 12.7984 18 12.5 18ZM13.25 13.4325V13.5C13.25 13.6989 13.171 13.8897 13.0303 14.0303C12.8897 14.171 12.6989 14.25 12.5 14.25C12.3011 14.25 12.1103 14.171 11.9697 14.0303C11.829 13.8897 11.75 13.6989 11.75 13.5V12.75C11.75 12.5511 11.829 12.3603 11.9697 12.2197C12.1103 12.079 12.3011 12 12.5 12C13.7403 12 14.75 11.1562 14.75 10.125C14.75 9.09375 13.7403 8.25 12.5 8.25C11.2597 8.25 10.25 9.09375 10.25 10.125V10.5C10.25 10.6989 10.171 10.8897 10.0303 11.0303C9.88968 11.171 9.69892 11.25 9.5 11.25C9.30109 11.25 9.11033 11.171 8.96967 11.0303C8.82902 10.8897 8.75 10.6989 8.75 10.5V10.125C8.75 8.26406 10.4319 6.75 12.5 6.75C14.5681 6.75 16.25 8.26406 16.25 10.125C16.25 11.7544 14.96 13.1184 13.25 13.4325Z" fill="#53D337"/>
</svg>
