<svg width="32" height="32" viewBox="0 0 32 32" fill="none" xmlns="http://www.w3.org/2000/svg">
<path d="M18.6667 20.0001C19.0444 20.0001 19.3724 19.8614 19.6507 19.5841C19.9289 19.3067 20.0675 18.9787 20.0667 18.6001C20.0667 18.2223 19.928 17.8947 19.6507 17.6174C19.3733 17.3401 19.0453 17.201 18.6667 17.2001C18.2889 17.2001 17.9613 17.3392 17.684 17.6174C17.4067 17.8956 17.2675 18.2232 17.2667 18.6001C17.2667 18.9779 17.4058 19.3059 17.684 19.5841C17.9622 19.8623 18.2898 20.001 18.6667 20.0001ZM17.6667 15.7334H19.6667C19.6667 15.089 19.7333 14.617 19.8667 14.3174C20 14.0179 20.3111 13.6232 20.8 13.1334C21.4667 12.4667 21.9111 11.9281 22.1333 11.5174C22.3555 11.1067 22.4667 10.6232 22.4667 10.0667C22.4667 9.06675 22.1164 8.2503 21.416 7.61741C20.7155 6.98453 19.7991 6.66764 18.6667 6.66675C17.7555 6.66675 16.9613 6.9223 16.284 7.43341C15.6067 7.94453 15.1342 8.6223 14.8667 9.46675L16.6667 10.2001C16.8667 9.64453 17.1391 9.22808 17.484 8.95075C17.8289 8.67341 18.2231 8.5343 18.6667 8.53341C19.2 8.53341 19.6333 8.68364 19.9667 8.98408C20.3 9.28453 20.4667 9.68986 20.4667 10.2001C20.4667 10.5112 20.3778 10.8059 20.2 11.0841C20.0222 11.3623 19.7111 11.7121 19.2667 12.1334C18.5333 12.7779 18.0835 13.2836 17.9173 13.6507C17.7511 14.0179 17.6675 14.7121 17.6667 15.7334ZM10.6667 24.0001C9.93332 24.0001 9.30577 23.7392 8.78399 23.2174C8.26221 22.6956 8.00088 22.0676 7.99999 21.3334V5.33341C7.99999 4.60008 8.26132 3.97253 8.78399 3.45075C9.30666 2.92897 9.93421 2.66764 10.6667 2.66675H26.6667C27.4 2.66675 28.028 2.92808 28.5507 3.45075C29.0733 3.97341 29.3342 4.60097 29.3333 5.33341V21.3334C29.3333 22.0667 29.0724 22.6947 28.5507 23.2174C28.0289 23.7401 27.4009 24.001 26.6667 24.0001H10.6667ZM5.33332 29.3334C4.59999 29.3334 3.97243 29.0725 3.45066 28.5507C2.92888 28.029 2.66755 27.401 2.66666 26.6667V8.00008H5.33332V26.6667H24V29.3334H5.33332Z" fill="#949494"/>
</svg>
