<svg width="32" height="32" viewBox="0 0 32 32" fill="none" xmlns="http://www.w3.org/2000/svg">
<path fill-rule="evenodd" clip-rule="evenodd" d="M19.0387 2.86941C18.5453 2.66675 17.9187 2.66675 16.6667 2.66675C15.4147 2.66675 14.7893 2.66675 14.2947 2.86941C13.6379 3.13903 13.1152 3.65843 12.8413 4.31341C12.716 4.61075 12.668 4.95875 12.648 5.46408C12.6391 5.83022 12.537 6.18804 12.3513 6.50371C12.1655 6.81938 11.9024 7.08246 11.5867 7.26808C11.265 7.44689 10.9034 7.54161 10.5354 7.54347C10.1673 7.54534 9.8048 7.45428 9.48133 7.27875C9.03066 7.04141 8.70399 6.91075 8.38133 6.86808C7.6754 6.77539 6.96142 6.96515 6.39466 7.39608C5.97066 7.71875 5.65733 8.25741 5.03199 9.33341C4.40533 10.4094 4.09333 10.9467 4.02266 11.4734C3.92933 12.1747 4.12133 12.8841 4.55599 13.4454C4.75333 13.7014 5.03199 13.9161 5.46266 14.1854C6.09866 14.5814 6.50666 15.2561 6.50666 16.0001C6.50666 16.7441 6.09866 17.4187 5.46399 17.8134C5.03199 18.0841 4.75333 18.2987 4.55466 18.5547C4.3401 18.832 4.18262 19.149 4.09131 19.4875C3.99999 19.826 3.97666 20.1792 4.02266 20.5267C4.09333 21.0521 4.40533 21.5907 5.03199 22.6667C5.65866 23.7427 5.97066 24.2801 6.39466 24.6041C6.95999 25.0347 7.67466 25.2241 8.38133 25.1321C8.70399 25.0894 9.03066 24.9587 9.48133 24.7214C9.80496 24.5456 10.1677 24.4545 10.536 24.4563C10.9043 24.4582 11.2662 24.553 11.588 24.7321C12.236 25.1054 12.62 25.7921 12.648 26.5361C12.668 27.0427 12.716 27.3894 12.8413 27.6867C13.1133 28.3401 13.636 28.8601 14.2947 29.1307C14.788 29.3334 15.4147 29.3334 16.6667 29.3334C17.9187 29.3334 18.5453 29.3334 19.0387 29.1307C19.6954 28.8611 20.2182 28.3417 20.492 27.6867C20.6173 27.3894 20.6653 27.0427 20.6853 26.5361C20.712 25.7921 21.0973 25.1041 21.7467 24.7321C22.0683 24.5533 22.4299 24.4586 22.798 24.4567C23.166 24.4548 23.5285 24.5459 23.852 24.7214C24.3027 24.9587 24.6293 25.0894 24.952 25.1321C25.6587 25.2254 26.3733 25.0347 26.9387 24.6041C27.3627 24.2814 27.676 23.7427 28.3013 22.6667C28.928 21.5907 29.24 21.0534 29.3107 20.5267C29.3565 20.1791 29.3329 19.8258 29.2414 19.4874C29.1498 19.1489 28.9921 18.8319 28.7773 18.5547C28.58 18.2987 28.3013 18.0841 27.8707 17.8147C27.2347 17.4187 26.8267 16.7441 26.8267 16.0001C26.8267 15.2561 27.2347 14.5814 27.8693 14.1867C28.3013 13.9161 28.58 13.7014 28.7787 13.4454C28.9932 13.1682 29.1507 12.8511 29.242 12.5127C29.3333 12.1742 29.3567 11.821 29.3107 11.4734C29.24 10.9481 28.928 10.4094 28.3013 9.33341C27.6747 8.25741 27.3627 7.72008 26.9387 7.39608C26.3719 6.96515 25.6579 6.77539 24.952 6.86808C24.6293 6.91075 24.3027 7.04141 23.852 7.27875C23.5284 7.45452 23.1656 7.5457 22.7973 7.54384C22.429 7.54197 22.0672 7.44712 21.7453 7.26808C21.4299 7.08229 21.167 6.81914 20.9815 6.50348C20.796 6.18783 20.6941 5.83009 20.6853 5.46408C20.6653 4.95741 20.6173 4.61075 20.492 4.31341C20.3565 3.98906 20.1584 3.69459 19.909 3.44682C19.6596 3.19906 19.3639 3.00285 19.0387 2.86941ZM16.6667 20.0001C18.8933 20.0001 20.6973 18.2094 20.6973 16.0001C20.6973 13.7907 18.892 12.0001 16.6667 12.0001C14.44 12.0001 12.636 13.7907 12.636 16.0001C12.636 18.2094 14.4413 20.0001 16.6667 20.0001Z" fill="#949494"/>
</svg>
