<svg width="25" height="24" viewBox="0 0 25 24" fill="none" xmlns="http://www.w3.org/2000/svg">
<path d="M9.5 3V1H15.5V3H9.5ZM11.5 14H13.5V8H11.5V14ZM12.5 22C11.2667 22 10.104 21.7627 9.012 21.288C7.92 20.8133 6.966 20.1673 6.15 19.35C5.33333 18.5333 4.68767 17.579 4.213 16.487C3.73833 15.395 3.50067 14.2327 3.5 13C3.5 11.7667 3.73767 10.604 4.213 9.512C4.68833 8.42 5.334 7.466 6.15 6.65C6.96667 5.83333 7.921 5.18767 9.013 4.713C10.105 4.23833 11.2673 4.00067 12.5 4C13.5333 4 14.525 4.16667 15.475 4.5C16.425 4.83333 17.3167 5.31667 18.15 5.95L19.55 4.55L20.95 5.95L19.55 7.35C20.1833 8.18333 20.6667 9.075 21 10.025C21.3333 10.975 21.5 11.9667 21.5 13C21.5 14.2333 21.2623 15.396 20.787 16.488C20.3117 17.58 19.666 18.534 18.85 19.35C18.0333 20.1667 17.079 20.8127 15.987 21.288C14.895 21.7633 13.7327 22.0007 12.5 22Z" fill="#53D337"/>
</svg>
